<svg xmlns="http://www.w3.org/2000/svg" viewBox="0 0 280 280"><rect width="280" height="280" rx="56" fill="#1e1b2e"/><rect x="46.67" y="28.00" width="18.65" height="20.35" rx="1" fill="#fca5a5"/><rect x="65.33" y="28.00" width="18.65" height="20.35" rx="1" fill="#ef4444"/><rect x="196.00" y="28.00" width="18.65" height="20.35" rx="1" fill="#ef4444"/><rect x="214.67" y="28.00" width="18.65" height="20.35" rx="1" fill="#ef4444"/><rect x="28.00" y="48.36" width="18.65" height="20.35" rx="1" fill="#ef4444"/><rect x="46.67" y="48.36" width="18.65" height="20.35" rx="1" fill="#fca5a5"/><rect x="65.33" y="48.36" width="18.65" height="20.35" rx="1" fill="#fca5a5"/><rect x="84.00" y="48.36" width="18.65" height="20.35" rx="1" fill="#ef4444"/><rect x="177.33" y="48.36" width="18.65" height="20.35" rx="1" fill="#ef4444"/><rect x="196.00" y="48.36" width="18.65" height="20.35" rx="1" fill="#ef4444"/><rect x="214.67" y="48.36" width="18.65" height="20.35" rx="1" fill="#ef4444"/><rect x="233.33" y="48.36" width="18.65" height="20.35" rx="1" fill="#b91c1c"/><rect x="28.00" y="68.73" width="18.65" height="20.35" rx="1" fill="#ef4444"/><rect x="46.67" y="68.73" width="18.65" height="20.35" rx="1" fill="#fca5a5"/><rect x="65.33" y="68.73" width="18.65" height="20.35" rx="1" fill="#ef4444"/><rect x="84.00" y="68.73" width="18.65" height="20.35" rx="1" fill="#ef4444"/><rect x="102.67" y="68.73" width="18.65" height="20.35" rx="1" fill="#ef4444"/><rect x="158.67" y="68.73" width="18.65" height="20.35" rx="1" fill="#ef4444"/><rect x="177.33" y="68.73" width="18.65" height="20.35" rx="1" fill="#ef4444"/><rect x="196.00" y="68.73" width="18.65" height="20.35" rx="1" fill="#ef4444"/><rect x="214.67" y="68.73" width="18.65" height="20.35" rx="1" fill="#b91c1c"/><rect x="233.33" y="68.73" width="18.65" height="20.35" rx="1" fill="#b91c1c"/><rect x="28.00" y="89.09" width="18.65" height="20.35" rx="1" fill="#ef4444"/><rect x="46.67" y="89.09" width="18.65" height="20.35" rx="1" fill="#ef4444"/><rect x="65.33" y="89.09" width="18.65" height="20.35" rx="1" fill="#ef4444"/><rect x="84.00" y="89.09" width="18.65" height="20.35" rx="1" fill="#ef4444"/><rect x="102.67" y="89.09" width="18.65" height="20.35" rx="1" fill="#ef4444"/><rect x="121.33" y="89.09" width="18.65" height="20.35" rx="1" fill="#ef4444"/><rect x="140.00" y="89.09" width="18.65" height="20.35" rx="1" fill="#ef4444"/><rect x="158.67" y="89.09" width="18.65" height="20.35" rx="1" fill="#ef4444"/><rect x="177.33" y="89.09" width="18.65" height="20.35" rx="1" fill="#ef4444"/><rect x="196.00" y="89.09" width="18.65" height="20.35" rx="1" fill="#ef4444"/><rect x="214.67" y="89.09" width="18.65" height="20.35" rx="1" fill="#b91c1c"/><rect x="233.33" y="89.09" width="18.65" height="20.35" rx="1" fill="#b91c1c"/><rect x="28.00" y="109.45" width="18.65" height="20.35" rx="1" fill="#ef4444"/><rect x="46.67" y="109.45" width="18.65" height="20.35" rx="1" fill="#ef4444"/><rect x="65.33" y="109.45" width="18.65" height="20.35" rx="1" fill="#ef4444"/><rect x="84.00" y="109.45" width="18.65" height="20.35" rx="1" fill="#ef4444"/><rect x="102.67" y="109.45" width="18.65" height="20.35" rx="1" fill="#ef4444"/><rect x="121.33" y="109.45" width="18.65" height="20.35" rx="1" fill="#ef4444"/><rect x="140.00" y="109.45" width="18.65" height="20.35" rx="1" fill="#ef4444"/><rect x="158.67" y="109.45" width="18.65" height="20.35" rx="1" fill="#ef4444"/><rect x="177.33" y="109.45" width="18.65" height="20.35" rx="1" fill="#ef4444"/><rect x="196.00" y="109.45" width="18.65" height="20.35" rx="1" fill="#ef4444"/><rect x="214.67" y="109.45" width="18.65" height="20.35" rx="1" fill="#ef4444"/><rect x="233.33" y="109.45" width="18.65" height="20.35" rx="1" fill="#b91c1c"/><rect x="28.00" y="129.82" width="18.65" height="20.35" rx="1" fill="#ef4444"/><rect x="46.67" y="129.82" width="18.65" height="20.35" rx="1" fill="#ef4444"/><rect x="65.33" y="129.82" width="18.65" height="20.35" rx="1" fill="#ef4444"/><rect x="84.00" y="129.82" width="18.65" height="20.35" rx="1" fill="#ef4444"/><rect x="102.67" y="129.82" width="18.65" height="20.35" rx="1" fill="#ef4444"/><rect x="121.33" y="129.82" width="18.65" height="20.35" rx="1" fill="#ef4444"/><rect x="140.00" y="129.82" width="18.65" height="20.35" rx="1" fill="#ef4444"/><rect x="158.67" y="129.82" width="18.65" height="20.35" rx="1" fill="#ef4444"/><rect x="177.33" y="129.82" width="18.65" height="20.35" rx="1" fill="#ef4444"/><rect x="196.00" y="129.82" width="18.65" height="20.35" rx="1" fill="#ef4444"/><rect x="214.67" y="129.82" width="18.65" height="20.35" rx="1" fill="#ef4444"/><rect x="233.33" y="129.82" width="18.65" height="20.35" rx="1" fill="#b91c1c"/><rect x="46.67" y="150.18" width="18.65" height="20.35" rx="1" fill="#ef4444"/><rect x="65.33" y="150.18" width="18.65" height="20.35" rx="1" fill="#ef4444"/><rect x="84.00" y="150.18" width="18.65" height="20.35" rx="1" fill="#ef4444"/><rect x="102.67" y="150.18" width="18.65" height="20.35" rx="1" fill="#ef4444"/><rect x="121.33" y="150.18" width="18.65" height="20.35" rx="1" fill="#ef4444"/><rect x="140.00" y="150.18" width="18.65" height="20.35" rx="1" fill="#ef4444"/><rect x="158.67" y="150.18" width="18.65" height="20.35" rx="1" fill="#ef4444"/><rect x="177.33" y="150.18" width="18.65" height="20.35" rx="1" fill="#ef4444"/><rect x="196.00" y="150.18" width="18.65" height="20.35" rx="1" fill="#ef4444"/><rect x="214.67" y="150.18" width="18.65" height="20.35" rx="1" fill="#b91c1c"/><rect x="65.33" y="170.55" width="18.65" height="20.35" rx="1" fill="#ef4444"/><rect x="84.00" y="170.55" width="18.65" height="20.35" rx="1" fill="#ef4444"/><rect x="102.67" y="170.55" width="18.65" height="20.35" rx="1" fill="#ef4444"/><rect x="121.33" y="170.55" width="18.65" height="20.35" rx="1" fill="#ef4444"/><rect x="140.00" y="170.55" width="18.65" height="20.35" rx="1" fill="#ef4444"/><rect x="158.67" y="170.55" width="18.65" height="20.35" rx="1" fill="#ef4444"/><rect x="177.33" y="170.55" width="18.65" height="20.35" rx="1" fill="#ef4444"/><rect x="196.00" y="170.55" width="18.65" height="20.35" rx="1" fill="#b91c1c"/><rect x="84.00" y="190.91" width="18.65" height="20.35" rx="1" fill="#ef4444"/><rect x="102.67" y="190.91" width="18.65" height="20.35" rx="1" fill="#ef4444"/><rect x="121.33" y="190.91" width="18.65" height="20.35" rx="1" fill="#ef4444"/><rect x="140.00" y="190.91" width="18.65" height="20.35" rx="1" fill="#ef4444"/><rect x="158.67" y="190.91" width="18.65" height="20.35" rx="1" fill="#ef4444"/><rect x="177.33" y="190.91" width="18.65" height="20.35" rx="1" fill="#b91c1c"/><rect x="102.67" y="211.27" width="18.65" height="20.35" rx="1" fill="#ef4444"/><rect x="121.33" y="211.27" width="18.65" height="20.35" rx="1" fill="#ef4444"/><rect x="140.00" y="211.27" width="18.65" height="20.35" rx="1" fill="#ef4444"/><rect x="158.67" y="211.27" width="18.65" height="20.35" rx="1" fill="#b91c1c"/><rect x="121.33" y="231.64" width="18.65" height="20.35" rx="1" fill="#ef4444"/><rect x="140.00" y="231.64" width="18.65" height="20.35" rx="1" fill="#b91c1c"/></svg>